<?xml version="1.0" encoding="UTF-8"?>
<svg version="1.1" xmlns="http://www.w3.org/2000/svg" width="317" height="299">
<path d="M0 0 C1.21042969 -0.00128906 2.42085937 -0.00257813 3.66796875 -0.00390625 C4.94285156 -0.00003906 6.21773437 0.00382813 7.53125 0.0078125 C9.44357422 0.00201172 9.44357422 0.00201172 11.39453125 -0.00390625 C13.21017578 -0.00197266 13.21017578 -0.00197266 15.0625 0 C16.18205078 0.00112793 17.30160156 0.00225586 18.45507812 0.00341797 C21.03125 0.1328125 21.03125 0.1328125 22.03125 1.1328125 C22.12891396 2.54727242 22.15756677 3.96657196 22.15823364 5.38439941 C22.16105347 6.30147171 22.16387329 7.21854401 22.16677856 8.16340637 C22.16374222 9.68450264 22.16374222 9.68450264 22.16064453 11.23632812 C22.16327301 12.82884651 22.16327301 12.82884651 22.16595459 14.45353699 C22.17037548 17.98206185 22.16743428 21.51053707 22.1640625 25.0390625 C22.16473547 27.47904469 22.16570544 29.91902682 22.16696167 32.35900879 C22.16843897 37.48039384 22.16628307 42.60176149 22.16162109 47.72314453 C22.1559238 54.30443965 22.15920263 60.88569399 22.16519356 67.46698761 C22.16879832 72.50767324 22.16766098 77.54834912 22.16506577 82.58903503 C22.16439626 85.01645411 22.16522573 87.44387406 22.16754532 89.87129211 C22.17007045 93.25731773 22.16623322 96.64327629 22.16064453 100.02929688 C22.16266876 101.04336105 22.16469299 102.05742523 22.16677856 103.10221863 C22.16395874 104.01929092 22.16113892 104.93636322 22.15823364 105.88122559 C22.1576681 107.08359989 22.1576681 107.08359989 22.15709114 108.31026459 C22.03125 110.1328125 22.03125 110.1328125 21.03125 111.1328125 C19.03160018 111.22039253 17.0288889 111.23977826 15.02734375 111.23046875 C13.20493164 111.22563477 13.20493164 111.22563477 11.34570312 111.22070312 C10.06630859 111.21232422 8.78691406 111.20394531 7.46875 111.1953125 C6.18548828 111.19080078 4.90222656 111.18628906 3.58007812 111.18164062 C0.39708978 111.16980795 -2.78580762 111.15332318 -5.96875 111.1328125 C-7.28732548 108.49566154 -7.08866704 106.5344861 -7.08227539 103.58154297 C-7.08216209 101.83996414 -7.08216209 101.83996414 -7.08204651 100.0632019 C-7.07688522 98.80484528 -7.07172394 97.54648865 -7.06640625 96.25 C-7.0649913 94.96545929 -7.06357635 93.68091858 -7.06211853 92.35745239 C-7.05829911 88.94124408 -7.04847373 85.52507824 -7.03741455 82.10888672 C-7.02718807 78.62337824 -7.02261826 75.1378629 -7.01757812 71.65234375 C-7.00685096 64.81248255 -6.98978142 57.97264956 -6.96875 51.1328125 C-7.62875 51.1328125 -8.28875 51.1328125 -8.96875 51.1328125 C-9.2373584 51.84888672 -9.5059668 52.56496094 -9.78271484 53.30273438 C-10.98222634 56.16496931 -12.37740793 58.73722267 -13.9453125 61.4140625 C-14.52958008 62.414375 -15.11384766 63.4146875 -15.71582031 64.4453125 C-16.64539551 66.023125 -16.64539551 66.023125 -17.59375 67.6328125 C-18.22893555 68.715625 -18.86412109 69.7984375 -19.51855469 70.9140625 C-23.9093749 78.38092488 -28.37696711 85.78780767 -32.96875 93.1328125 C-33.83562511 94.55278169 -34.70143786 95.97339978 -35.56640625 97.39453125 C-36.47118428 98.86989586 -37.37613043 100.34515739 -38.28125 101.8203125 C-38.70245117 102.51705078 -39.12365234 103.21378906 -39.55761719 103.93164062 C-41.49594866 107.0710816 -42.85718499 109.05843583 -45.96875 111.1328125 C-48.91116959 111.60394501 -51.86749337 111.54901973 -54.84375 111.5703125 C-55.64683594 111.60318359 -56.44992188 111.63605469 -57.27734375 111.66992188 C-61.38934551 111.70718054 -63.37313789 111.57243096 -66.7578125 109.07421875 C-69.2843883 105.71289088 -71.4178754 102.29809571 -73.46875 98.6328125 C-74.33886523 97.11587707 -75.21137929 95.60031578 -76.0859375 94.0859375 C-76.77961426 92.88420898 -76.77961426 92.88420898 -77.48730469 91.65820312 C-80.11136909 87.18501225 -82.85407195 82.78580985 -85.59375 78.3828125 C-86.14514648 77.49480957 -86.69654297 76.60680664 -87.26464844 75.69189453 C-89.27633173 72.45432294 -91.29084934 69.21853978 -93.30957031 65.98535156 C-94.44833884 64.16097022 -95.58378926 62.33456389 -96.71875 60.5078125 C-97.33234375 59.52554688 -97.9459375 58.54328125 -98.578125 57.53125 C-99.96875 55.1328125 -99.96875 55.1328125 -100.96875 52.1328125 C-101.62875 52.1328125 -102.28875 52.1328125 -102.96875 52.1328125 C-102.96652939 52.85722031 -102.96430878 53.58162811 -102.96202087 54.32798767 C-102.94201773 61.14124703 -102.92677575 67.95450203 -102.91693783 74.76778316 C-102.91171011 78.27090135 -102.9046145 81.77399535 -102.89331055 85.27709961 C-102.88040794 89.30062091 -102.87552088 93.32411664 -102.87109375 97.34765625 C-102.86593246 98.61117416 -102.86077118 99.87469208 -102.85545349 101.17649841 C-102.85534019 102.91819054 -102.85534019 102.91819054 -102.85522461 104.69506836 C-102.853004 105.72321152 -102.85078339 106.75135468 -102.84849548 107.81065369 C-102.96875 110.1328125 -102.96875 110.1328125 -103.96875 111.1328125 C-105.88333282 111.23253036 -107.80157317 111.26361839 -109.71875 111.265625 C-110.8840625 111.26691406 -112.049375 111.26820313 -113.25 111.26953125 C-114.4771875 111.26566406 -115.704375 111.26179688 -116.96875 111.2578125 C-118.80953125 111.26361328 -118.80953125 111.26361328 -120.6875 111.26953125 C-121.8528125 111.26824219 -123.018125 111.26695312 -124.21875 111.265625 C-125.29640625 111.26449707 -126.3740625 111.26336914 -127.484375 111.26220703 C-129.96875 111.1328125 -129.96875 111.1328125 -130.96875 110.1328125 C-131.10817898 108.17151705 -131.17838539 106.20527048 -131.22167969 104.23950195 C-131.25130798 102.97761551 -131.28093628 101.71572906 -131.3114624 100.41560364 C-131.33841867 99.02577792 -131.36479162 97.63594079 -131.390625 96.24609375 C-131.40448494 95.54841574 -131.41834488 94.85073772 -131.43262482 94.13191795 C-131.50598186 90.43576579 -131.57351861 86.73956049 -131.63623047 83.04321289 C-131.70196497 79.23091545 -131.78659481 75.41929016 -131.8758049 71.60748005 C-131.94110226 68.67273616 -131.99248304 65.73786434 -132.04013824 62.80278587 C-132.06531662 61.39814303 -132.0956467 59.9935824 -132.13130951 58.58916664 C-132.1800275 56.61745119 -132.20712735 54.64523797 -132.23339844 52.6730957 C-132.25480896 51.55248245 -132.27621948 50.4318692 -132.29827881 49.27729797 C-131.51976773 41.84845806 -126.61742251 37.17490542 -121.71875 32.0078125 C-121.07550781 31.30527344 -120.43226563 30.60273438 -119.76953125 29.87890625 C-114.84051167 24.63252525 -110.44669842 20.51925121 -103.03125 19.6953125 C-96.23504625 20.07726969 -91.0079215 22.64087081 -85.96875 27.1328125 C-84.43993322 29.35979305 -83.07444343 31.51755583 -81.74609375 33.85546875 C-81.36339325 34.50958237 -80.98069275 35.16369598 -80.58639526 35.83763123 C-79.77143816 37.23255483 -78.96081142 38.63001605 -78.15420532 40.02978516 C-76.06216615 43.66001771 -73.93935543 47.27220601 -71.8203125 50.88671875 C-71.40403091 51.59877472 -70.98774933 52.31083069 -70.55885315 53.04446411 C-65.57880788 61.54440451 -60.31157127 69.85730491 -54.96875 78.1328125 C-51.85287515 74.23020512 -49.36052391 69.95980664 -46.78125 65.6953125 C-45.78792825 64.06109589 -44.79443783 62.42698179 -43.80078125 60.79296875 C-43.0730249 59.59438232 -43.0730249 59.59438232 -42.33056641 58.37158203 C-40.55443182 55.45169064 -38.76304741 52.54158036 -36.96875 49.6328125 C-34.82328683 46.15239446 -32.68397255 42.66848987 -30.55859375 39.17578125 C-25.03878491 30.10811477 -19.46323827 21.07659664 -13.84375 12.0703125 C-13.17980225 11.00449951 -12.51585449 9.93868652 -11.83178711 8.84057617 C-11.21440674 7.8529126 -10.59702637 6.86524902 -9.9609375 5.84765625 C-9.40776855 4.96198975 -8.85459961 4.07632324 -8.28466797 3.16381836 C-5.86506428 -0.5706312 -4.44430483 0.00447757 0 0 Z " fill="#11456F" transform="translate(261.96875,149.8671875)"/>
<path d="M0 0 C4.26964187 1.42321396 5.19739264 4.53786247 7.1875 8.3125 C15.73588874 23.960076 26.37610301 38.23709514 37.32421875 52.28515625 C50.89740536 69.76034587 56.0599868 85.63612339 56.59375 107.609375 C57.05644604 111.4711073 57.54544355 112.99085634 60 116 C62.86330787 117.49456316 65.87358208 118.37686169 68.9609375 119.30078125 C69.8816806 119.59157059 70.80242371 119.88235992 71.75106812 120.18196106 C74.82744683 121.14442643 77.91209211 122.07522704 81 123 C82.07834106 123.32579041 83.15668213 123.65158081 84.2677002 123.98724365 C92.37414349 126.43079496 100.49752708 128.81499749 108.625 131.1875 C113.36840131 132.57272131 118.11035242 133.96276857 122.8515625 135.35546875 C123.9100943 135.6628447 124.9686261 135.97022064 126.05923462 136.28691101 C132.80947319 138.26987206 139.4176724 140.51603481 146 143 C145.39199219 146.27909702 144.81187499 148.72168157 142.96875 151.515625 C142.37126953 152.43214844 142.37126953 152.43214844 141.76171875 153.3671875 C141.34535156 153.98851562 140.92898437 154.60984375 140.5 155.25 C140.08363281 155.88679687 139.66726562 156.52359375 139.23828125 157.1796875 C136.2019604 161.7980396 136.2019604 161.7980396 135 163 C118.23982982 162.90675844 106.19719263 157.62177091 92.875 147.875 C84.13862438 141.5420354 78.22919858 138.57781971 67.30859375 138.46875 C59.25068371 139.76258207 54.06609968 144.32665955 48.5625 150.0625 C47.91289307 150.72572266 47.26328613 151.38894531 46.59399414 152.07226562 C41.37948486 157.45749767 36.61905037 163.09573268 32 169 C30.05466597 171.40429811 28.0845955 173.71202932 26 176 C25.34 176 24.68 176 24 176 C23.68095703 176.79664063 23.68095703 176.79664063 23.35546875 177.609375 C21.47752402 180.92148502 18.91958177 183.50932368 16.3125 186.25 C15.21798673 187.41725351 14.12423255 188.58521929 13.03125 189.75390625 C12.5053125 190.31480957 11.979375 190.87571289 11.4375 191.45361328 C9.13058572 193.93527005 6.91411428 196.49120066 4.69921875 199.0546875 C2.70593572 201.3366529 0.66506973 203.57228574 -1.375 205.8125 C-4.50422827 209.27530082 -7.50500349 212.80679003 -10.4375 216.4375 C-13.62224576 220.35161935 -16.85348478 224.21180007 -20.1875 228 C-20.96480469 228.886875 -21.74210937 229.77375 -22.54296875 230.6875 C-26.39789773 234.31566846 -29.58265455 235.93141877 -34.875 236.1875 C-35.90625 236.125625 -36.9375 236.06375 -38 236 C-38.765625 234.37109375 -38.765625 234.37109375 -39 232 C-37.234375 229.16015625 -37.234375 229.16015625 -34.75 226.0625 C-30.36921125 220.84339619 -30.36921125 220.84339619 -27 215 C-27.90359134 210.42139957 -30.12274036 207.03212006 -32.6875 203.1875 C-48.60662026 178.11297442 -53.46801378 146.6185027 -47.375 117.625 C-46.68155137 114.71577608 -45.88194795 111.85737619 -45 109 C-44.79101074 108.31873047 -44.58202148 107.63746094 -44.36669922 106.93554688 C-38.29007891 87.87271103 -28.10131544 68.3683289 -12 56 C-11.67 56.66 -11.34 57.32 -11 58 C-11.86108398 59.74560547 -11.86108398 59.74560547 -13.24609375 61.8671875 C-14.00224976 63.05707275 -14.00224976 63.05707275 -14.77368164 64.27099609 C-15.3227417 65.13031738 -15.87180176 65.98963867 -16.4375 66.875 C-33.23978787 94.04727676 -39.3250108 125.03215909 -32.03125 156.40234375 C-28.72159392 169.23724522 -22.58576454 180.58858617 -16 192 C-14.07931751 191.84115823 -14.07931751 191.84115823 -12 191 C-10.45595945 189.01464982 -10.45595945 189.01464982 -9.23046875 186.4765625 C-8.73796631 185.54303955 -8.24546387 184.6095166 -7.73803711 183.64770508 C-7.22635986 182.6502124 -6.71468262 181.65271973 -6.1875 180.625 C-5.11164559 178.59905301 -4.03354474 176.57429727 -2.953125 174.55078125 C-2.43943359 173.58221191 -1.92574219 172.61364258 -1.39648438 171.61572266 C6.74727859 156.36182818 16.91594262 146.9313531 32 139 C38.35494135 135.75171684 38.35494135 135.75171684 42 130 C41.71313622 124.38894449 40.51159318 120.25217865 38.125 115.125 C37.47580452 113.70015557 36.82882073 112.27430216 36.18359375 110.84765625 C35.83022949 110.0705127 35.47686523 109.29336914 35.11279297 108.49267578 C33.05551993 103.88434807 31.135148 99.21793394 29.1875 94.5625 C24.58812032 83.62617886 19.84495093 72.75591604 15.06677246 61.896698 C13.8807886 59.20065895 12.69650359 56.50387972 11.51269531 53.80688477 C8.3201401 46.53592498 5.12483566 39.26684214 1.87890625 32.01953125 C1.06489972 30.17977794 0.25107294 28.33994509 -0.5625 26.5 C-0.91393066 25.73196045 -1.26536133 24.9639209 -1.62744141 24.17260742 C-3.96675453 18.83768402 -5.99621678 12.7783013 -4.46191406 6.95922852 C-3.32643088 4.17815385 -2.12860135 2.12860135 0 0 Z " fill="#12456E" transform="translate(89,25)"/>
<path d="M0 0 C20.6383078 17.99320822 40.13175777 46.68184314 43.28125 74.58984375 C43.343125 75.76546875 43.405 76.94109375 43.46875 78.15234375 C42.47875 78.15234375 41.48875 78.15234375 40.46875 78.15234375 C40.15421875 77.18554688 39.8396875 76.21875 39.515625 75.22265625 C38.19543907 71.1893323 36.83766279 67.16935155 35.46875 63.15234375 C35.1696875 62.26289062 34.870625 61.3734375 34.5625 60.45703125 C29.44104961 46.46788434 20.45902604 34.97185219 10.46875 24.15234375 C9.76878906 23.38148437 9.06882813 22.610625 8.34765625 21.81640625 C-5.1637722 7.6027206 -23.78238877 -2.44059897 -42.53125 -7.84765625 C-44.10326172 -8.32332031 -44.10326172 -8.32332031 -45.70703125 -8.80859375 C-66.54265853 -14.0475404 -91.68678854 -12.86049563 -111.46484375 -4.1796875 C-114.53125 -2.84765625 -114.53125 -2.84765625 -116.71875 -2.84765625 C-119.42345166 -4.33990544 -120.74885238 -6.3411596 -122.53125 -8.84765625 C-123.6759375 -10.36359375 -123.6759375 -10.36359375 -124.84375 -11.91015625 C-126.53125 -14.84765625 -126.53125 -14.84765625 -126.39453125 -16.90625 C-125.53125 -18.84765625 -125.53125 -18.84765625 -123.7734375 -19.97265625 C-80.64934501 -35.91291486 -35.78002977 -29.49587897 0 0 Z " fill="#113F66" transform="translate(239.53125,53.84765625)"/>
<path d="M0 0 C1.89584085 0.02013791 3.79234118 -0.00780909 5.6875 -0.0625 C10.54910873 -0.09718449 14.37971906 0.37434559 19 2 C20.64546802 2.45964313 22.29133206 2.9178699 23.9375 3.375 C28.61151844 4.77076355 32.70701636 6.69450879 37 9 C37 9.66 37 10.32 37 11 C37.99 11.1546875 37.99 11.1546875 39 11.3125 C42.83841009 12.19213564 46.33096691 13.56969896 50 15 C50 15.66 50 16.32 50 17 C51.485 17.495 51.485 17.495 53 18 C52.505 19.485 52.505 19.485 52 21 C51.34 20.67 50.68 20.34 50 20 C49.67 20.66 49.34 21.32 49 22 C48.34 21.67 47.68 21.34 47 21 C47 21.66 47 22.32 47 23 C45.68 23 44.36 23 43 23 C43 22.34 43 21.68 43 21 C42.37351562 20.86722656 41.74703125 20.73445313 41.1015625 20.59765625 C40.28429687 20.42105469 39.46703125 20.24445312 38.625 20.0625 C37.81289062 19.88847656 37.00078125 19.71445312 36.1640625 19.53515625 C34 19 34 19 32 18 C32 17.34 32 16.68 32 16 C29.03 15.67 26.06 15.34 23 15 C23 14.34 23 13.68 23 13 C-10.86441031 8.87449136 -10.86441031 8.87449136 -43.125 17.6875 C-46.59204547 19.27028163 -49.23174583 19.22609525 -53 19 C-53.33 17.68 -53.66 16.36 -54 15 C-54.66 15 -55.32 15 -56 15 C-57.42944945 12.64561267 -58.08661261 11.51967567 -57.625 8.75 C-57.41875 8.1725 -57.2125 7.595 -57 7 C-55.68 7 -54.36 7 -53 7 C-53 6.34 -53 5.68 -53 5 C-52.28714844 4.80664062 -51.57429688 4.61328125 -50.83984375 4.4140625 C-49.88207031 4.15367188 -48.92429687 3.89328125 -47.9375 3.625 C-46.52791016 3.24214844 -46.52791016 3.24214844 -45.08984375 2.8515625 C-42.98057221 2.2702462 -40.8839203 1.64160078 -38.80078125 0.97265625 C-33.96587581 -0.26464227 -29.21255146 -0.74902799 -24.25 -1.1875 C-23.32445312 -1.28224609 -22.39890625 -1.37699219 -21.4453125 -1.47460938 C-5.80315077 -2.90157538 -5.80315077 -2.90157538 0 0 Z " fill="#11446D" transform="translate(174,29)"/>
<path d="M0 0 C1.21042969 -0.00128906 2.42085937 -0.00257813 3.66796875 -0.00390625 C4.94285156 -0.00003906 6.21773437 0.00382813 7.53125 0.0078125 C9.44357422 0.00201172 9.44357422 0.00201172 11.39453125 -0.00390625 C13.21017578 -0.00197266 13.21017578 -0.00197266 15.0625 0 C16.18205078 0.00112793 17.30160156 0.00225586 18.45507812 0.00341797 C21.03125 0.1328125 21.03125 0.1328125 22.03125 1.1328125 C22.12891396 2.54727242 22.15756677 3.96657196 22.15823364 5.38439941 C22.16105347 6.30147171 22.16387329 7.21854401 22.16677856 8.16340637 C22.16374222 9.68450264 22.16374222 9.68450264 22.16064453 11.23632812 C22.16327301 12.82884651 22.16327301 12.82884651 22.16595459 14.45353699 C22.17037548 17.98206185 22.16743428 21.51053707 22.1640625 25.0390625 C22.16473547 27.47904469 22.16570544 29.91902682 22.16696167 32.35900879 C22.16843897 37.48039384 22.16628307 42.60176149 22.16162109 47.72314453 C22.1559238 54.30443965 22.15920263 60.88569399 22.16519356 67.46698761 C22.16879832 72.50767324 22.16766098 77.54834912 22.16506577 82.58903503 C22.16439626 85.01645411 22.16522573 87.44387406 22.16754532 89.87129211 C22.17007045 93.25731773 22.16623322 96.64327629 22.16064453 100.02929688 C22.16266876 101.04336105 22.16469299 102.05742523 22.16677856 103.10221863 C22.16395874 104.01929092 22.16113892 104.93636322 22.15823364 105.88122559 C22.1576681 107.08359989 22.1576681 107.08359989 22.15709114 108.31026459 C22.03125 110.1328125 22.03125 110.1328125 21.03125 111.1328125 C19.03160018 111.22039253 17.0288889 111.23977826 15.02734375 111.23046875 C13.20493164 111.22563477 13.20493164 111.22563477 11.34570312 111.22070312 C10.06630859 111.21232422 8.78691406 111.20394531 7.46875 111.1953125 C6.18548828 111.19080078 4.90222656 111.18628906 3.58007812 111.18164062 C0.39708978 111.16980795 -2.78580762 111.15332318 -5.96875 111.1328125 C-7.28732548 108.49566154 -7.08866704 106.5344861 -7.08227539 103.58154297 C-7.08216209 101.83996414 -7.08216209 101.83996414 -7.08204651 100.0632019 C-7.07688522 98.80484528 -7.07172394 97.54648865 -7.06640625 96.25 C-7.0649913 94.96545929 -7.06357635 93.68091858 -7.06211853 92.35745239 C-7.05829911 88.94124408 -7.04847373 85.52507824 -7.03741455 82.10888672 C-7.02718807 78.62337824 -7.02261826 75.1378629 -7.01757812 71.65234375 C-7.00685096 64.81248255 -6.98978142 57.97264956 -6.96875 51.1328125 C-7.62875 51.1328125 -8.28875 51.1328125 -8.96875 51.1328125 C-9.24058105 51.85750732 -9.51241211 52.58220215 -9.79248047 53.32885742 C-10.93808313 56.05970977 -12.25488155 58.46632729 -13.7890625 60.99609375 C-14.59150391 62.32543945 -14.59150391 62.32543945 -15.41015625 63.68164062 C-15.96574219 64.59365234 -16.52132812 65.50566406 -17.09375 66.4453125 C-17.65707031 67.37666016 -18.22039062 68.30800781 -18.80078125 69.26757812 C-20.1867946 71.55802392 -21.57620628 73.84633326 -22.96875 76.1328125 C-23.29875 75.1428125 -23.62875 74.1528125 -23.96875 73.1328125 C-22.97539799 71.46217503 -21.97443242 69.79605651 -20.96875 68.1328125 C-20.25473768 64.93886224 -20.25473768 64.93886224 -19.96875 62.1328125 C-18.64875 61.8028125 -17.32875 61.4728125 -15.96875 61.1328125 C-15.96875 60.1428125 -15.96875 59.1528125 -15.96875 58.1328125 C-15.30875 58.1328125 -14.64875 58.1328125 -13.96875 58.1328125 C-12.97875 54.8328125 -11.98875 51.5328125 -10.96875 48.1328125 C-8.98875 48.4628125 -7.00875 48.7928125 -4.96875 49.1328125 C-4.96875 68.9328125 -4.96875 88.7328125 -4.96875 109.1328125 C3.61125 109.1328125 12.19125 109.1328125 21.03125 109.1328125 C21.03125 73.8228125 21.03125 38.5128125 21.03125 2.1328125 C12.12125 2.1328125 3.21125 2.1328125 -5.96875 2.1328125 C-6.62875 3.7828125 -7.28875 5.4328125 -7.96875 7.1328125 C-10.06777008 11.75065667 -12.69619798 15.8214775 -15.56640625 19.984375 C-16.86995977 21.98146256 -17.95034585 23.97905828 -18.96875 26.1328125 C-19.62875 26.1328125 -20.28875 26.1328125 -20.96875 26.1328125 C-21.236875 26.9990625 -21.505 27.8653125 -21.78125 28.7578125 C-22.93986987 32.05073214 -24.35084839 35.04409125 -25.96875 38.1328125 C-26.62875 38.1328125 -27.28875 38.1328125 -27.96875 38.1328125 C-28.071875 38.7103125 -28.175 39.2878125 -28.28125 39.8828125 C-29.08365729 42.50887273 -30.29129963 43.9583398 -31.96875 46.1328125 C-34.88393481 51.02279992 -37.45909106 56.02386395 -39.96875 61.1328125 C-40.62875 61.1328125 -41.28875 61.1328125 -41.96875 61.1328125 C-42.071875 61.8959375 -42.175 62.6590625 -42.28125 63.4453125 C-43.05472799 66.46890827 -43.82688637 66.99610998 -45.96875 69.1328125 C-46.88980685 70.62620237 -47.76357378 72.14955493 -48.59375 73.6953125 C-49.01914063 74.48035156 -49.44453125 75.26539063 -49.8828125 76.07421875 C-50.59251508 77.41959019 -51.28849974 78.77231199 -51.96875 80.1328125 C-53.94875 80.1328125 -55.92875 80.1328125 -57.96875 80.1328125 C-62.46875 71.1328125 -62.46875 71.1328125 -66.96875 62.1328125 C-67.62875 62.1328125 -68.28875 62.1328125 -68.96875 62.1328125 C-69.65710938 60.68648437 -69.65710938 60.68648437 -70.359375 59.2109375 C-70.97873275 57.93468517 -71.59854872 56.65865513 -72.21875 55.3828125 C-72.51910156 54.74859375 -72.81945312 54.114375 -73.12890625 53.4609375 C-74.56181892 50.53413715 -75.87202508 48.22818463 -78.203125 45.9296875 C-79.96875 44.1328125 -79.96875 44.1328125 -79.96875 40.1328125 C-80.8659375 39.854375 -80.8659375 39.854375 -81.78125 39.5703125 C-85.04184089 37.42763849 -85.70427773 34.73655846 -86.96875 31.1328125 C-86.96875 30.1428125 -86.96875 29.1528125 -86.96875 28.1328125 C-87.62875 28.1328125 -88.28875 28.1328125 -88.96875 28.1328125 C-88.96875 27.4728125 -88.96875 26.8128125 -88.96875 26.1328125 C-89.67 26.0090625 -90.37125 25.8853125 -91.09375 25.7578125 C-94.14531387 25.09442905 -97.02215938 24.16069295 -99.96875 23.1328125 C-99.96875 22.4728125 -99.96875 21.8128125 -99.96875 21.1328125 C-106.46411656 22.68413306 -110.57418497 24.05159669 -114.96875 29.1328125 C-115.62875 29.1328125 -116.28875 29.1328125 -116.96875 29.1328125 C-117.29875 30.1228125 -117.62875 31.1128125 -117.96875 32.1328125 C-118.62875 32.1328125 -119.28875 32.1328125 -119.96875 32.1328125 C-120.23533417 32.73496078 -120.50191833 33.33710907 -120.77658081 33.95750427 C-121.99486464 36.18046295 -123.1681069 37.27462706 -125.04345703 38.93774414 C-129.76571896 44.35961704 -128.82022621 51.47211537 -128.7734375 58.25390625 C-128.78469923 59.72365996 -128.79858494 61.19339569 -128.81497192 62.6631012 C-128.85089444 66.51180891 -128.85139846 70.35972041 -128.84429932 74.20855713 C-128.84338404 78.14373875 -128.87627838 82.07862573 -128.90625 86.01367188 C-128.96000377 93.72022827 -128.973179 101.42602967 -128.96875 109.1328125 C-120.71875 109.1328125 -112.46875 109.1328125 -103.96875 109.1328125 C-103.96875 90.3228125 -103.96875 71.5128125 -103.96875 52.1328125 C-103.63875 52.1328125 -103.30875 52.1328125 -102.96875 52.1328125 C-102.94562149 59.67779483 -102.92783231 67.22277351 -102.91693783 74.76778316 C-102.91171011 78.27090135 -102.9046145 81.77399535 -102.89331055 85.27709961 C-102.88040794 89.30062091 -102.87552088 93.32411664 -102.87109375 97.34765625 C-102.86593246 98.61117416 -102.86077118 99.87469208 -102.85545349 101.17649841 C-102.85534019 102.91819054 -102.85534019 102.91819054 -102.85522461 104.69506836 C-102.853004 105.72321152 -102.85078339 106.75135468 -102.84849548 107.81065369 C-102.96875 110.1328125 -102.96875 110.1328125 -103.96875 111.1328125 C-105.88333282 111.23253036 -107.80157317 111.26361839 -109.71875 111.265625 C-110.8840625 111.26691406 -112.049375 111.26820313 -113.25 111.26953125 C-114.4771875 111.26566406 -115.704375 111.26179688 -116.96875 111.2578125 C-118.80953125 111.26361328 -118.80953125 111.26361328 -120.6875 111.26953125 C-121.8528125 111.26824219 -123.018125 111.26695312 -124.21875 111.265625 C-125.29640625 111.26449707 -126.3740625 111.26336914 -127.484375 111.26220703 C-129.96875 111.1328125 -129.96875 111.1328125 -130.96875 110.1328125 C-131.10817898 108.17151705 -131.17838539 106.20527048 -131.22167969 104.23950195 C-131.25130798 102.97761551 -131.28093628 101.71572906 -131.3114624 100.41560364 C-131.33841867 99.02577792 -131.36479162 97.63594079 -131.390625 96.24609375 C-131.40448494 95.54841574 -131.41834488 94.85073772 -131.43262482 94.13191795 C-131.50598186 90.43576579 -131.57351861 86.73956049 -131.63623047 83.04321289 C-131.70196497 79.23091545 -131.78659481 75.41929016 -131.8758049 71.60748005 C-131.94110226 68.67273616 -131.99248304 65.73786434 -132.04013824 62.80278587 C-132.06531662 61.39814303 -132.0956467 59.9935824 -132.13130951 58.58916664 C-132.1800275 56.61745119 -132.20712735 54.64523797 -132.23339844 52.6730957 C-132.25480896 51.55248245 -132.27621948 50.4318692 -132.29827881 49.27729797 C-131.51976773 41.84845806 -126.61742251 37.17490542 -121.71875 32.0078125 C-121.07550781 31.30527344 -120.43226563 30.60273438 -119.76953125 29.87890625 C-114.84051167 24.63252525 -110.44669842 20.51925121 -103.03125 19.6953125 C-96.23504625 20.07726969 -91.0079215 22.64087081 -85.96875 27.1328125 C-84.43993322 29.35979305 -83.07444343 31.51755583 -81.74609375 33.85546875 C-81.36339325 34.50958237 -80.98069275 35.16369598 -80.58639526 35.83763123 C-79.77143816 37.23255483 -78.96081142 38.63001605 -78.15420532 40.02978516 C-76.06216615 43.66001771 -73.93935543 47.27220601 -71.8203125 50.88671875 C-71.40403091 51.59877472 -70.98774933 52.31083069 -70.55885315 53.04446411 C-65.57880788 61.54440451 -60.31157127 69.85730491 -54.96875 78.1328125 C-51.85287515 74.23020512 -49.36052391 69.95980664 -46.78125 65.6953125 C-45.78792825 64.06109589 -44.79443783 62.42698179 -43.80078125 60.79296875 C-43.0730249 59.59438232 -43.0730249 59.59438232 -42.33056641 58.37158203 C-40.55443182 55.45169064 -38.76304741 52.54158036 -36.96875 49.6328125 C-34.82328683 46.15239446 -32.68397255 42.66848987 -30.55859375 39.17578125 C-25.03878491 30.10811477 -19.46323827 21.07659664 -13.84375 12.0703125 C-13.17980225 11.00449951 -12.51585449 9.93868652 -11.83178711 8.84057617 C-11.21440674 7.8529126 -10.59702637 6.86524902 -9.9609375 5.84765625 C-9.40776855 4.96198975 -8.85459961 4.07632324 -8.28466797 3.16381836 C-5.86506428 -0.5706312 -4.44430483 0.00447757 0 0 Z " fill="#072544" transform="translate(261.96875,149.8671875)"/>
<path d="M0 0 C4.26964187 1.42321396 5.19739264 4.53786247 7.1875 8.3125 C15.73588874 23.960076 26.37610301 38.23709514 37.32421875 52.28515625 C50.89740536 69.76034587 56.0599868 85.63612339 56.59375 107.609375 C57.05644604 111.4711073 57.54544355 112.99085634 60 116 C62.86330787 117.49456316 65.87358208 118.37686169 68.9609375 119.30078125 C69.8816806 119.59157059 70.80242371 119.88235992 71.75106812 120.18196106 C74.82744683 121.14442643 77.91209211 122.07522704 81 123 C82.07834106 123.32579041 83.15668213 123.65158081 84.2677002 123.98724365 C92.37414349 126.43079496 100.49752708 128.81499749 108.625 131.1875 C113.36840131 132.57272131 118.11035242 133.96276857 122.8515625 135.35546875 C123.9100943 135.6628447 124.9686261 135.97022064 126.05923462 136.28691101 C132.80947319 138.26987206 139.4176724 140.51603481 146 143 C145.39199219 146.27909702 144.81187499 148.72168157 142.96875 151.515625 C142.37126953 152.43214844 142.37126953 152.43214844 141.76171875 153.3671875 C141.34535156 153.98851562 140.92898437 154.60984375 140.5 155.25 C140.08363281 155.88679687 139.66726562 156.52359375 139.23828125 157.1796875 C136.2019604 161.7980396 136.2019604 161.7980396 135 163 C118.23982982 162.90675844 106.19719263 157.62177091 92.875 147.875 C83.20434551 140.86478029 76.22603434 137.55156536 64 139 C55.9640138 140.87835881 50.43300836 148.20745433 45 154 C44.67 153.01 44.34 152.02 44 151 C58.92360319 135.61003421 58.92360319 135.61003421 69.625 134.6875 C78.12365963 134.81363966 85.87346013 139.79981708 93 144 C93 144.66 93 145.32 93 146 C94.10794922 146.40412109 94.10794922 146.40412109 95.23828125 146.81640625 C97.89007783 147.9528905 99.87544073 149.23273585 102.1875 150.9375 C106.85643661 154.15230652 111.5199296 155.69576613 117 157 C117 157.66 117 158.32 117 159 C117.79664063 159.06058594 118.59328125 159.12117187 119.4140625 159.18359375 C129.93848858 160.01581722 129.93848858 160.01581722 135 161 C135.1546875 159.8553125 135.1546875 159.8553125 135.3125 158.6875 C136 156 136 156 137.40625 154.625 C139.3176126 152.6761597 140.13320052 150.82100567 141.1875 148.3125 C141.53167969 147.50425781 141.87585938 146.69601563 142.23046875 145.86328125 C142.48441406 145.24839844 142.73835937 144.63351563 143 144 C141.5459375 143.8453125 141.5459375 143.8453125 140.0625 143.6875 C136.29022339 143.15512225 132.87505353 142.02257031 129.2890625 140.765625 C125.90356179 139.63327323 122.47295303 138.82087981 119 138 C119 137.34 119 136.68 119 136 C118.33613281 135.96261719 117.67226562 135.92523438 116.98828125 135.88671875 C111.67944754 135.49146252 108.55881476 134.7797651 104 132 C100.3604788 131.14974149 96.69569442 130.55014716 93 130 C93 129.34 93 128.68 93 128 C91.87722656 127.81824219 90.75445312 127.63648438 89.59765625 127.44921875 C81.84233111 126.16085226 74.3447569 124.88791954 67 122 C66.10152344 121.690625 65.20304687 121.38125 64.27734375 121.0625 C63.36082031 120.7325 62.44429688 120.4025 61.5 120.0625 C60.6646875 119.76472656 59.829375 119.46695313 58.96875 119.16015625 C57 118 57 118 56.40625 116.05859375 C56.20515625 115.03958984 56.20515625 115.03958984 56 114 C55.2575 113.35442139 55.2575 113.35442139 54.5 112.69580078 C52.44633357 110.37406135 52.61723954 108.87691527 52.59375 105.80859375 C52.57183594 104.78056641 52.54992187 103.75253906 52.52734375 102.69335938 C52.51832031 101.61892578 52.50929687 100.54449219 52.5 99.4375 C52.43086493 91.41289414 51.72857008 84.57197139 49 77 C48.73952881 76.2251123 48.47905762 75.45022461 48.21069336 74.65185547 C47.04909974 70.5841969 47.04909974 70.5841969 44 68 C39.63947798 60.99673736 39.63947798 60.99673736 39 57 C38.34 57 37.68 57 37 57 C36.731875 56.360625 36.46375 55.72125 36.1875 55.0625 C35.11332248 52.66868314 35.11332248 52.66868314 32 52 C30.5703125 49.671875 30.5703125 49.671875 29.125 46.75 C26.86384105 42.40722822 24.62666471 39.33261081 21 36 C19.98343919 34.34338239 18.97934924 32.67888441 18 31 C17.34 30.67 16.68 30.34 16 30 C15.26924352 27.6859378 14.59861742 25.35171131 14 23 C13.34 23 12.68 23 12 23 C10.51494131 20.41989804 9.03682689 17.83622441 7.5625 15.25 C7.14162109 14.52039062 6.72074219 13.79078125 6.28710938 13.0390625 C5.68286133 11.97558594 5.68286133 11.97558594 5.06640625 10.890625 C4.69459229 10.24125977 4.32277832 9.59189453 3.93969727 8.92285156 C2.9812968 6.96172866 2.4496957 5.13035565 2 3 C-0.13875077 4.01760473 -0.13875077 4.01760473 -2 6 C-2.76119437 11.32836061 -1.33229894 15.76851611 0.34375 20.765625 C1 23 1 23 1 26 C1.66 26 2.32 26 3 26 C3.33 27.98 3.66 29.96 4 32 C4.66 32 5.32 32 6 32 C6.64964023 33.89453221 7.29455115 35.79068649 7.9375 37.6875 C8.29714844 38.74324219 8.65679687 39.79898438 9.02734375 40.88671875 C9.87206518 43.59050583 10.50893785 46.21386842 11 49 C11.66 49 12.32 49 13 49 C16.47994823 55.47990359 20 62.50312314 20 70 C20.66 70 21.32 70 22 70 C22.33 72.31 22.66 74.62 23 77 C20.14471017 75.57235508 19.89424075 73.81116456 18.6796875 70.8828125 C18.23069092 69.80990967 17.78169434 68.73700684 17.3190918 67.6315918 C16.8425415 66.4744165 16.36599121 65.31724121 15.875 64.125 C15.38362549 62.94784424 14.89225098 61.77068848 14.38598633 60.55786133 C12.91843645 57.04085571 11.45883005 53.52062961 10 50 C8.567219 46.56050986 7.12868161 43.12347696 5.6875 39.6875 C5.36950439 38.92405273 5.05150879 38.16060547 4.72387695 37.37402344 C2.8053025 32.79830604 0.7338376 28.33601825 -1.4375 23.875 C-4.01893649 18.31715312 -6.11318653 13.08429705 -4.4453125 6.96484375 C-3.33203785 4.17018008 -2.13058272 2.13058272 0 0 Z " fill="#092A49" transform="translate(89,25)"/>
<path d="M0 0 C7.6747035 6.70475677 14.30376975 14.06133878 20.47265625 22.16015625 C20.14265625 22.82015625 19.81265625 23.48015625 19.47265625 24.16015625 C14.77632951 20.68895822 13.23145557 18.81343978 11.47265625 13.16015625 C9.58949466 12.05179202 9.58949466 12.05179202 7.47265625 11.16015625 C6.57933594 10.03287109 6.57933594 10.03287109 5.66796875 8.8828125 C0.85019531 2.90774473 -5.65851121 -1.83886948 -12.21484375 -5.77734375 C-13.30796875 -6.45796875 -14.40109375 -7.13859375 -15.52734375 -7.83984375 C-15.52734375 -8.49984375 -15.52734375 -9.15984375 -15.52734375 -9.83984375 C-16.18734375 -9.94296875 -16.84734375 -10.04609375 -17.52734375 -10.15234375 C-21.36575384 -11.03197939 -24.85831066 -12.40954271 -28.52734375 -13.83984375 C-28.52734375 -14.49984375 -28.52734375 -15.15984375 -28.52734375 -15.83984375 C-29.07390625 -15.96488281 -29.62046875 -16.08992188 -30.18359375 -16.21875 C-32.86177957 -16.92846924 -35.42388795 -17.82965723 -38.02734375 -18.77734375 C-38.96578125 -19.11636719 -39.90421875 -19.45539062 -40.87109375 -19.8046875 C-43.52734375 -20.83984375 -43.52734375 -20.83984375 -45.49609375 -21.90625 C-51.12472403 -24.49325507 -57.273198 -23.85931237 -63.30859375 -23.6796875 C-66.52734375 -23.83984375 -66.52734375 -23.83984375 -69.3046875 -24.859375 C-73.82017926 -26.23317916 -77.91650049 -25.88490975 -82.58984375 -25.58984375 C-83.51780762 -25.53755615 -84.44577148 -25.48526855 -85.40185547 -25.43139648 C-98.05481313 -25.11950854 -98.05481313 -25.11950854 -109.52734375 -20.83984375 C-111.7890625 -20.42578125 -111.7890625 -20.42578125 -114.21484375 -20.21484375 C-115.02308594 -20.14007813 -115.83132812 -20.0653125 -116.6640625 -19.98828125 C-117.58638672 -19.91480469 -117.58638672 -19.91480469 -118.52734375 -19.83984375 C-118.52734375 -19.17984375 -118.52734375 -18.51984375 -118.52734375 -17.83984375 C-119.84734375 -17.50984375 -121.16734375 -17.17984375 -122.52734375 -16.83984375 C-122.19734375 -14.52984375 -121.86734375 -12.21984375 -121.52734375 -9.83984375 C-120.86734375 -9.83984375 -120.20734375 -9.83984375 -119.52734375 -9.83984375 C-119.19734375 -8.51984375 -118.86734375 -7.19984375 -118.52734375 -5.83984375 C-111.75748348 -7.17187644 -105.52058017 -9.07554705 -99.2109375 -11.86328125 C-82.93911558 -17.78461383 -58.98840711 -16.52491563 -42.52734375 -11.83984375 C-42.52734375 -11.17984375 -42.52734375 -10.51984375 -42.52734375 -9.83984375 C-39.55734375 -9.50984375 -36.58734375 -9.17984375 -33.52734375 -8.83984375 C-33.52734375 -8.17984375 -33.52734375 -7.51984375 -33.52734375 -6.83984375 C-28.08234375 -5.35484375 -28.08234375 -5.35484375 -22.52734375 -3.83984375 C-22.52734375 -3.17984375 -22.52734375 -2.51984375 -22.52734375 -1.83984375 C-21.94984375 -1.75734375 -21.37234375 -1.67484375 -20.77734375 -1.58984375 C-17.91141335 -0.63453362 -16.52826735 0.94484798 -14.52734375 3.16015625 C-17.94507476 2.11927742 -21.16984681 0.90447811 -24.3828125 -0.64453125 C-50.24271632 -13.11060819 -80.15556593 -15.30910399 -107.52734375 -5.83984375 C-108.8449835 -5.29929784 -110.15681687 -4.74426803 -111.4609375 -4.171875 C-114.52734375 -2.83984375 -114.52734375 -2.83984375 -116.71484375 -2.83984375 C-119.41954541 -4.33209294 -120.74494613 -6.3333471 -122.52734375 -8.83984375 C-123.67203125 -10.35578125 -123.67203125 -10.35578125 -124.83984375 -11.90234375 C-126.52734375 -14.83984375 -126.52734375 -14.83984375 -126.390625 -16.8984375 C-125.52734375 -18.83984375 -125.52734375 -18.83984375 -123.76953125 -19.96484375 C-80.61840481 -35.91509511 -35.81893727 -29.46121782 0 0 Z " fill="#092C4C" transform="translate(239.52734375,53.83984375)"/>
<path d="M0 0 C0.495 0.99 0.495 0.99 1 2 C0.13891602 3.74560547 0.13891602 3.74560547 -1.24609375 5.8671875 C-1.75019775 6.66044434 -2.25430176 7.45370117 -2.77368164 8.27099609 C-3.3227417 9.13031738 -3.87180176 9.98963867 -4.4375 10.875 C-21.23978787 38.04727676 -27.3250108 69.03215909 -20.03125 100.40234375 C-17.143867 111.59728484 -12.31557379 121.99444973 -6.2578125 131.828125 C-5 134 -5 134 -5 136 C-10.4535263 134.1821579 -12.43866043 127.88652726 -15 123 C-16.89095595 118.89524196 -18 115.59566525 -18 111 C-18.66 111 -19.32 111 -20 111 C-22.28571429 102.57142857 -22.28571429 102.57142857 -22 98 C-22.66 98 -23.32 98 -24 98 C-25.8604094 89.64146915 -26.33566398 81.61000731 -26.3125 73.0625 C-26.32861328 71.87720703 -26.34472656 70.69191406 -26.36132812 69.47070312 C-26.36568539 61.52740447 -25.1917076 54.61052541 -23 47 C-22.2984356 44.00671207 -21.65104025 41.00480113 -21 38 C-20.34 38 -19.68 38 -19 38 C-19.061875 37.154375 -19.12375 36.30875 -19.1875 35.4375 C-18.95984372 31.26380157 -17.79792186 28.74567053 -16 25 C-15.34 25 -14.68 25 -14 25 C-13.67 23.02 -13.34 21.04 -13 19 C-16.89747571 22.38419208 -18.81415824 26.11753736 -21 30.6875 C-21.34957764 31.40647461 -21.69915527 32.12544922 -22.05932617 32.86621094 C-22.74481079 34.28229258 -23.42620169 35.70036485 -24.10302734 37.12060547 C-24.82312327 38.62939655 -25.5593604 40.13047914 -26.30078125 41.62890625 C-30.73588881 50.92722055 -32.41662567 60.78089104 -33 71 C-33.66 71 -34.32 71 -35 71 C-34.88201056 74.96952899 -34.75778201 78.93880781 -34.62768555 82.90795898 C-34.58428777 84.25914147 -34.5426163 85.61038053 -34.50268555 86.96166992 C-34.44510048 88.90036701 -34.38085702 90.83886276 -34.31640625 92.77734375 C-34.27974854 93.94515381 -34.24309082 95.11296387 -34.20532227 96.31616211 C-34.29923812 98.91779795 -34.29923812 98.91779795 -33 100 C-32.61789511 102.48069658 -32.28929007 104.94567327 -32 107.4375 C-31.91314941 108.15873047 -31.82629883 108.87996094 -31.73681641 109.62304688 C-31.08760081 115.07499621 -30.49946509 120.5321716 -30 126 C-40.84041579 109.73937631 -39.09518642 82.2255803 -35.86425781 63.953125 C-35.08472065 60.24371062 -34.11766128 56.62105126 -33 53 C-32.79101074 52.31873047 -32.58202148 51.63746094 -32.36669922 50.93554688 C-26.29007891 31.87271103 -16.10131544 12.3683289 0 0 Z " fill="#072748" transform="translate(77,81)"/>
<path d="M0 0 C0.66 0.33 1.32 0.66 2 1 C1.27296875 1.77601563 0.5459375 2.55203125 -0.203125 3.3515625 C-6.18348635 9.76576367 -12.01523897 16.27553397 -17.69262695 22.95947266 C-21.41796821 27.34085272 -25.23150405 31.63138214 -29.109375 35.87890625 C-30.71869031 37.68439843 -32.20998728 39.52514968 -33.6875 41.4375 C-36.32060415 44.35526405 -38.30690832 45.67048699 -42 47 C-45.875 47.1875 -45.875 47.1875 -49 47 C-49.765625 45.37109375 -49.765625 45.37109375 -50 43 C-48.234375 40.16015625 -48.234375 40.16015625 -45.75 37.0625 C-39.96203867 30.61815159 -39.96203867 30.61815159 -38.3125 22.6875 C-38.539375 21.800625 -38.76625 20.91375 -39 20 C-38.34 20 -37.68 20 -37 20 C-37 20.99 -37 21.98 -37 23 C-36.34 23 -35.68 23 -35 23 C-35.33 25.31 -35.66 27.62 -36 30 C-36.99 30 -37.98 30 -39 30 C-39.268125 30.721875 -39.53625 31.44375 -39.8125 32.1875 C-40.99901362 34.99766383 -42.27485639 37.48416557 -44 40 C-44.66 40 -45.32 40 -46 40 C-46.99 42.475 -46.99 42.475 -48 45 C-46.7625 44.690625 -45.525 44.38125 -44.25 44.0625 C-42.10425939 43.52606485 -39.97186767 42.99424339 -37.8046875 42.55078125 C-35.81323466 42.16328263 -35.81323466 42.16328263 -34.875 40.125 C-34.58625 39.42375 -34.2975 38.7225 -34 38 C-33.34 37.01 -32.68 36.02 -32 35 C-31.34 35 -30.68 35 -30 35 C-29.773125 34.46375 -29.54625 33.9275 -29.3125 33.375 C-27.20569172 29.56268026 -24.37997986 26.33069486 -21.25 23.3125 C-19.73204695 21.90492721 -19.73204695 21.90492721 -19 19 C-17.328125 17.38671875 -17.328125 17.38671875 -15.25 15.6875 C-12.60274661 13.4577346 -10.27343584 11.27699079 -8.125 8.5625 C-7.073125 7.2940625 -7.073125 7.2940625 -6 6 C-5.34 6 -4.68 6 -4 6 C-3.896875 5.38125 -3.79375 4.7625 -3.6875 4.125 C-3 2 -3 2 0 0 Z " fill="#0A294A" transform="translate(100,214)"/>
<path d="M0 0 C0 0.99 0 1.98 0 3 C-2.08984375 4.6484375 -2.08984375 4.6484375 -4.9375 6.375 C-5.94296875 6.99117187 -6.9484375 7.60734375 -7.984375 8.2421875 C-10.5261475 9.72379064 -13.08655535 11.12677398 -15.6875 12.5 C-23.07220871 16.54967897 -28.29187383 21.42924239 -32 29 C-32.66 29 -33.32 29 -34 29 C-34 29.66 -34 30.32 -34 31 C-34.66 31 -35.32 31 -36 31 C-36.0928125 32.0209375 -36.0928125 32.0209375 -36.1875 33.0625 C-37.12297408 36.4445986 -38.63574991 38.39859165 -40.7265625 41.16015625 C-42.65295408 43.94337844 -43.76620211 46.85381538 -45 50 C-45.33 50.66 -45.66 51.32 -46 52 C-46.66 52 -47.32 52 -48 52 C-48.12375 52.763125 -48.2475 53.52625 -48.375 54.3125 C-49 57 -49 57 -51 60 C-54.125 60.6875 -54.125 60.6875 -57 61 C-56.67 60.01 -56.34 59.02 -56 58 C-55.37649658 57.8664209 -54.75299316 57.7328418 -54.1105957 57.59521484 C-51.82657294 57.18403974 -51.82657294 57.18403974 -50.55541992 55.04150391 C-50.11818604 54.19507324 -49.68095215 53.34864258 -49.23046875 52.4765625 C-48.73796631 51.54303955 -48.24546387 50.6095166 -47.73803711 49.64770508 C-47.22635986 48.6502124 -46.71468262 47.65271973 -46.1875 46.625 C-45.11164559 44.59905301 -44.03354474 42.57429727 -42.953125 40.55078125 C-42.43943359 39.58221191 -41.92574219 38.61364258 -41.39648438 37.61572266 C-33.2394416 22.33695408 -23.0720558 12.97826187 -8 5 C-5.30017475 3.37931427 -2.65241763 1.69754729 0 0 Z " fill="#062444" transform="translate(129,159)"/>
<path d="M0 0 C3.73963494 3.23228841 5.56485639 6.83310637 7.4375 11.3125 C7.88536865 12.36449585 7.88536865 12.36449585 8.34228516 13.43774414 C12.46810883 23.30149023 16.4327976 33.22315445 17 44 C16.01 44 15.02 44 14 44 C13.68546875 43.03320312 13.3709375 42.06640625 13.046875 41.0703125 C8.81089996 27.64911869 8.81089996 27.64911869 2.75 15 C1 12 1 12 1 10 C1.66 10 2.32 10 3 10 C3.33 11.32 3.66 12.64 4 14 C4.66 14 5.32 14 6 14 C5.73445313 13.49210937 5.46890625 12.98421875 5.1953125 12.4609375 C3.10022511 8.37781098 1.32380814 4.4126938 0 0 Z " fill="#0A2542" transform="translate(266,88)"/>
<path d="M0 0 C0.66 0 1.32 0 2 0 C3.25664978 2.90600261 4 4.79604584 4 8 C4.66 8 5.32 8 6 8 C6 8.99 6 9.98 6 11 C6.66 11 7.32 11 8 11 C8.18175781 11.64066406 8.36351563 12.28132813 8.55078125 12.94140625 C9.72326396 16.9759493 10.87891026 20.92236487 12.625 24.75 C13.95303242 27.88898572 14.58906019 30.63029353 15 34 C15.66 34 16.32 34 17 34 C17.19335938 34.71027344 17.38671875 35.42054688 17.5859375 36.15234375 C17.84632813 37.07144531 18.10671875 37.99054688 18.375 38.9375 C18.63023437 39.85402344 18.88546875 40.77054688 19.1484375 41.71484375 C19.76660104 44.16745087 19.76660104 44.16745087 22 45 C22.02698189 46.62490954 22.04638757 48.24994633 22.0625 49.875 C22.07410156 50.77992188 22.08570313 51.68484375 22.09765625 52.6171875 C22 55 22 55 21 57 C20.01 57 19.02 57 18 57 C18.28875 55.824375 18.5775 54.64875 18.875 53.4375 C19.61926583 45.98339149 15.99710021 39.61390159 13 33 C11.44143362 29.53494484 9.88512202 26.06891567 8.33276367 22.60107422 C7.25053503 20.18434732 6.15498419 17.77517037 5.05200195 15.36767578 C4.5437085 14.24474121 4.03541504 13.12180664 3.51171875 11.96484375 C3.05240967 10.9605835 2.59310059 9.95632324 2.11987305 8.92163086 C0.97521478 5.93533797 0.41310616 3.16401093 0 0 Z " fill="#0B2C4B" transform="translate(112,102)"/>
<path d="M0 0 C3.7102228 1.30377923 6.24167091 4.10235814 9.08984375 6.734375 C10.05921875 7.600625 11.02859375 8.466875 12.02734375 9.359375 C14.08984375 11.734375 14.08984375 11.734375 14.08984375 15.734375 C12.2578125 16.3984375 12.2578125 16.3984375 10.08984375 16.734375 C8.65587092 15.33375038 7.2310138 13.92086801 5.8828125 12.4375 C2.75171612 9.46329952 -1.07624551 7.65985017 -4.91015625 5.734375 C-4.53515625 3.296875 -4.53515625 3.296875 -3.91015625 0.734375 C-1.91015625 -0.265625 -1.91015625 -0.265625 0 0 Z " fill="#13456E" transform="translate(236.91015625,55.265625)"/>
<path d="M0 0 C0.495 0.99 0.495 0.99 1 2 C-0.19540301 4.29246952 -1.44239592 6.43909396 -2.8125 8.625 C-3.2161377 9.28072998 -3.61977539 9.93645996 -4.03564453 10.61206055 C-4.90031719 12.01387834 -5.76861355 13.41346609 -6.64013672 14.81103516 C-8.01580191 17.02543626 -9.37085674 19.25143248 -10.72265625 21.48046875 C-11.60615759 22.92485446 -12.49025613 24.36887506 -13.375 25.8125 C-13.79112549 26.49973145 -14.20725098 27.18696289 -14.63598633 27.89501953 C-16.56199712 31.00406727 -17.91468304 32.94312202 -21 35 C-23.94241959 35.47113251 -26.89874337 35.41620723 -29.875 35.4375 C-30.67808594 35.47037109 -31.48117188 35.50324219 -32.30859375 35.53710938 C-36.70759882 35.57696856 -38.45200976 35.43243732 -42.01953125 32.6171875 C-43.80655813 30.25563324 -44.67754174 28.90212435 -45 26 C-44.34 26 -43.68 26 -43 26 C-43 26.66 -43 27.32 -43 28 C-42.34 28 -41.68 28 -41 28 C-40.34 29.65 -39.68 31.3 -39 33 C-27.81163606 33.86214365 -27.81163606 33.86214365 -17.80078125 30.24609375 C-16.5550304 27.86633715 -15.77800554 25.56859116 -15 23 C-14.09889908 21.292786 -13.16199372 19.60391066 -12.1875 17.9375 C-11.76855469 17.18339844 -11.34960938 16.42929688 -10.91796875 15.65234375 C-10.61503906 15.10707031 -10.31210938 14.56179687 -10 14 C-9.34 14 -8.68 14 -8 14 C-7.9175 13.278125 -7.835 12.55625 -7.75 11.8125 C-6.84004039 8.40015145 -5.30697534 6.64623642 -3 4 C-1.99426222 2.67098936 -0.99204592 1.33926199 0 0 Z " fill="#0B2A45" transform="translate(237,226)"/>
<path d="M0 0 C2.475 0.99 2.475 0.99 5 2 C5 2.99 5 3.98 5 5 C5.66 5 6.32 5 7 5 C7.5259375 6.423125 7.5259375 6.423125 8.0625 7.875 C9.89213963 12.187722 12.57942868 15.74802326 15.30859375 19.53125 C17.14502309 22.21167343 18.52186509 24.91202644 19.890625 27.84765625 C21.84186629 31.63333917 24.25823395 35.13321843 26.609375 38.6796875 C28 41 28 41 28 43 C28.66 43 29.32 43 30 43 C32.125 47.625 32.125 47.625 31 51 C24.61454504 40.72955292 18.2343313 30.45932569 12.04882812 20.06689453 C9.26547399 15.40412605 6.36870592 10.82276018 3.41015625 6.26953125 C2.13897463 4.2236683 1.03420628 2.17333205 0 0 Z " fill="#072345" transform="translate(160,201)"/>
<path d="M0 0 C0 0.66 0 1.32 0 2 C-0.99 2 -1.98 2 -3 2 C-2.67 4.97 -2.34 7.94 -2 11 C-1.34 11 -0.68 11 0 11 C0.33 12.32 0.66 13.64 1 15 C5.40699605 14.13288272 9.51301073 13.19809733 13.6875 11.5 C22.86415215 7.89880384 33.2599332 7.64220163 43 8 C43 8.33 43 8.66 43 9 C42.01902344 9.09796875 41.03804687 9.1959375 40.02734375 9.296875 C29.13449 10.47062113 18.30487184 12.17498395 8.203125 16.62890625 C5 18 5 18 2.8125 18 C0.10779834 16.50775081 -1.21760238 14.50649665 -3 12 C-3.763125 10.989375 -4.52625 9.97875 -5.3125 8.9375 C-7 6 -7 6 -7 3.75 C-5.38423058 0.92240351 -3.2040812 0 0 0 Z " fill="#082341" transform="translate(120,33)"/>
<path d="M0 0 C7.59694031 2.61144823 13.69954862 7.03699219 19 13 C19 13.66 19 14.32 19 15 C19.598125 15.268125 20.19625 15.53625 20.8125 15.8125 C23.01819033 17.00987475 24.43583187 18.04478984 26 20 C26 20.99 26 21.98 26 23 C26.639375 23.268125 27.27875 23.53625 27.9375 23.8125 C30 25 30 25 31 28 C31.66 28 32.32 28 33 28 C36.22265625 33.17578125 36.22265625 33.17578125 37 35 C36.67 35.99 36.34 36.98 36 38 C35.47792969 37.27296875 34.95585937 36.5459375 34.41796875 35.796875 C24.78208275 22.63401846 13.91177791 9.78638605 0 1 C0 0.67 0 0.34 0 0 Z " fill="#072848" transform="translate(230,60)"/>
<path d="M0 0 C1.98 0 3.96 0 6 0 C6 0.99 6 1.98 6 3 C4.68 3 3.36 3 2 3 C2 21.81 2 40.62 2 60 C1.67 60 1.34 60 1 60 C0.9845388 59.08584824 0.9845388 59.08584824 0.96876526 58.15322876 C0.86083047 51.82697535 0.74622212 45.50086815 0.62768555 39.17480469 C0.58429484 36.81187999 0.54262287 34.44892309 0.50268555 32.0859375 C0.44508307 28.69521364 0.3813599 25.3046525 0.31640625 21.9140625 C0.29969376 20.85256989 0.28298126 19.79107727 0.26576233 18.69741821 C0.24581711 17.71655243 0.22587189 16.73568665 0.20532227 15.72509766 C0.18977798 14.85905914 0.1742337 13.99302063 0.15821838 13.10073853 C0.12903408 10.94242107 0.12903408 10.94242107 -1 9 C-1.23333333 2.46666667 -1.23333333 2.46666667 0 0 Z " fill="#103A5C" transform="translate(156,199)"/>
<path d="M0 0 C0.66 0.33 1.32 0.66 2 1 C1.3709375 1.67804688 0.741875 2.35609375 0.09375 3.0546875 C-5.00392755 8.59764411 -9.84788685 14.19301485 -14.40625 20.19921875 C-14.9321875 20.79347656 -15.458125 21.38773438 -16 22 C-16.66 22 -17.32 22 -18 22 C-18.24492188 22.56203125 -18.48984375 23.1240625 -18.7421875 23.703125 C-20.22926539 26.41865854 -22.04062782 28.46391438 -24.125 30.75 C-24.84945312 31.54921875 -25.57390625 32.3484375 -26.3203125 33.171875 C-26.87460938 33.77515625 -27.42890625 34.3784375 -28 35 C-28.495 33.515 -28.495 33.515 -29 32 C-27.63671875 29.95703125 -27.63671875 29.95703125 -25.6875 27.8125 C-25.05199219 27.09707031 -24.41648437 26.38164062 -23.76171875 25.64453125 C-22 24 -22 24 -20 24 C-19.67 23.01 -19.34 22.02 -19 21 C-18.34 21 -17.68 21 -17 21 C-16.71125 20.4225 -16.4225 19.845 -16.125 19.25 C-15.08333333 17.16666667 -14.04166667 15.08333333 -13 13 C-12.34 13 -11.68 13 -11 13 C-10.67 12.01 -10.34 11.02 -10 10 C-8.37897032 8.28891311 -6.70496537 6.62746694 -5 5 C-4.071875 4.071875 -3.14375 3.14375 -2.1875 2.1875 C-1.465625 1.465625 -0.74375 0.74375 0 0 Z " fill="#092749" transform="translate(131,179)"/>
<path d="M0 0 C0.33 0.66 0.66 1.32 1 2 C0.01196289 4.06298828 0.01196289 4.06298828 -1.52734375 6.5703125 C-2.07197266 7.46621094 -2.61660156 8.36210938 -3.17773438 9.28515625 C-4.04881836 10.69087891 -4.04881836 10.69087891 -4.9375 12.125 C-5.51435547 13.06988281 -6.09121094 14.01476562 -6.68554688 14.98828125 C-8.11659795 17.33000119 -9.55498219 19.66688189 -11 22 C-11.62109375 20.203125 -11.62109375 20.203125 -12 18 C-10.0625 14.75 -10.0625 14.75 -8 12 C-8.763125 12.825 -9.52625 13.65 -10.3125 14.5 C-13 17 -13 17 -16 17 C-11.07037669 10.7178043 -6.2879759 4.95010869 0 0 Z " fill="#09233F" transform="translate(77,81)"/>
<path d="M0 0 C0.66 0 1.32 0 2 0 C2 0.66 2 1.32 2 2 C2.66 2 3.32 2 4 2 C4.66 3.65 5.32 5.3 6 7 C11.94 7 17.88 7 24 7 C24 7.66 24 8.32 24 9 C21.10259378 9.13539281 18.21154379 9.23426829 15.3125 9.3125 C14.49587891 9.35439453 13.67925781 9.39628906 12.83789062 9.43945312 C8.38061336 9.52968141 6.59555338 9.46661915 2.96875 6.625 C1.19643874 4.26191832 0.32172384 2.89551456 0 0 Z " fill="#05213E" transform="translate(192,252)"/>
<path d="M0 0 C0.99 0.33 1.98 0.66 3 1 C3.6875 3.0625 3.6875 3.0625 4 5 C3.38125 4.79375 2.7625 4.5875 2.125 4.375 C1.42375 4.25125 0.7225 4.1275 0 4 C-2.3399444 5.90684285 -2.3399444 5.90684285 -2.25 9.1875 C-1.99543753 13.06957765 -1.10129893 16.2831161 0 20 C0.125 22.9375 0.125 22.9375 0 25 C-3.94760309 19.07859537 -5.66273638 14.07598442 -4.59375 7.0546875 C-3.73623411 4.08723119 -2.15953162 2.15953162 0 0 Z " fill="#07223E" transform="translate(89,25)"/>
<path d="M0 0 C4.02973682 3.16622179 5.31553001 6.87323854 7.05078125 11.5234375 C8.0357268 14.21361468 8.0357268 14.21361468 9.75 17.5 C11 20 11 20 11 22 C10.34 22 9.68 22 9 22 C8.67 20.68 8.34 19.36 8 18 C7.34 18 6.68 18 6 18 C3.61606954 13.0103781 1.66022036 8.54585103 1 3 C0.67 2.01 0.34 1.02 0 0 Z " fill="#123657" transform="translate(261,80)"/>
<path d="M0 0 C0 0.66 0 1.32 0 2 C-1.11375 2.103125 -2.2275 2.20625 -3.375 2.3125 C-4.57125 2.539375 -5.7675 2.76625 -7 3 C-7.99 4.485 -7.99 4.485 -9 6 C-9.66 6 -10.32 6 -11 6 C-11 6.66 -11 7.32 -11 8 C-11.66 8 -12.32 8 -13 8 C-13.33 8.66 -13.66 9.32 -14 10 C-14.33 8.68 -14.66 7.36 -15 6 C-10.16676765 1.85722941 -6.46402065 -0.36937261 0 0 Z M-17 8 C-16.34 8 -15.68 8 -15 8 C-15.33 8.99 -15.66 9.98 -16 11 C-16.66 10.67 -17.32 10.34 -18 10 C-17.67 9.34 -17.34 8.68 -17 8 Z " fill="#0F3D60" transform="translate(162,171)"/>
<path d="M0 0 C0 0.66 0 1.32 0 2 C-6.26530612 3.25306122 -6.26530612 3.25306122 -9.8125 2.03125 C-13.35217866 0.88605985 -16.16742168 0.79933514 -19.875 0.875 C-21.02742187 0.89304687 -22.17984375 0.91109375 -23.3671875 0.9296875 C-24.23601562 0.95289062 -25.10484375 0.97609375 -26 1 C-18.52695832 -3.29699897 -8.2171728 -0.7906558 0 0 Z " fill="#0B3359" transform="translate(180,27)"/>
<path d="M0 0 C0.33 0.66 0.66 1.32 1 2 C1.66 2 2.32 2 3 2 C3.50367757 3.45706726 4.00282556 4.91570096 4.5 6.375 C4.91765625 7.59316406 4.91765625 7.59316406 5.34375 8.8359375 C6 11 6 11 6 13 C6.66 13 7.32 13 8 13 C10.125 17.625 10.125 17.625 9 21 C7.67997444 18.44113496 6.36886218 15.87832932 5.0625 13.3125 C4.68931641 12.59126953 4.31613281 11.87003906 3.93164062 11.12695312 C2.06034761 7.43494258 0.51730444 4.16306904 0 0 Z " fill="#062742" transform="translate(47,207)"/>
<path d="M0 0 C0.66 0 1.32 0 2 0 C1.00553113 3.58008792 0.3316094 4.7909419 -2.875 6.8125 C-6.86215595 9.60350917 -8.18194687 12.59389477 -10 17 C-11.23820553 13.50703749 -11.23820553 13.50703749 -10.1796875 11.25390625 C-9.53386719 10.41666016 -9.53386719 10.41666016 -8.875 9.5625 C-8.18277344 8.66337891 -8.18277344 8.66337891 -7.4765625 7.74609375 C-5.45096743 5.3507472 -3.27954889 3.15290729 -1 1 C-0.67 0.67 -0.34 0.34 0 0 Z " fill="#0D2E51" transform="translate(67,93)"/>
<path d="M0 0 C3.11547441 0.67883043 5.85137721 1.74106902 8.75 3.0625 C9.54921875 3.42472656 10.3484375 3.78695312 11.171875 4.16015625 C11.77515625 4.43730469 12.3784375 4.71445313 13 5 C13 5.66 13 6.32 13 7 C14.32 7 15.64 7 17 7 C17 7.66 17 8.32 17 9 C12.91741122 8.39655166 9.8528697 7.05381582 6.25 5.0625 C5.28578125 4.53785156 4.3215625 4.01320312 3.328125 3.47265625 C1 2 1 2 0 0 Z " fill="#06233F" transform="translate(188,176)"/>
<path d="M0 0 C0.66 0.33 1.32 0.66 2 1 C2.4140625 3.06640625 2.4140625 3.06640625 2.625 5.5625 C2.69976562 6.38878906 2.77453125 7.21507812 2.8515625 8.06640625 C2.90054687 8.70449219 2.94953125 9.34257812 3 10 C2.01 10 1.02 10 0 10 C-0.99 7.03 -1.98 4.06 -3 1 C-2.01 0.67 -1.02 0.34 0 0 Z " fill="#25303F" transform="translate(280,122)"/>
<path d="M0 0 C2.52259061 1.97420135 2.9929808 2.96745642 3.6875 6.1875 C3.790625 7.115625 3.89375 8.04375 4 9 C2.68 9.33 1.36 9.66 0 10 C-1.125 3.375 -1.125 3.375 0 0 Z " fill="#152137" transform="translate(277,113)"/>
<path d="M0 0 C2.85215083 2.75118973 5.34358701 5.60315225 7.75 8.75 C8.36359375 9.54921875 8.9771875 10.3484375 9.609375 11.171875 C10.06828125 11.77515625 10.5271875 12.3784375 11 13 C10.01 13.495 10.01 13.495 9 14 C8.01 13.34 7.02 12.68 6 12 C6 11.01 6 10.02 6 9 C5.34 9 4.68 9 4 9 C0 3.70588235 0 3.70588235 0 0 Z " fill="#072742" transform="translate(122,73)"/>
<path d="M0 0 C0.33 0.99 0.66 1.98 1 3 C4.3 2.67 7.6 2.34 11 2 C6.577168 5.317124 5.28089024 5.30466674 0 5 C-0.5625 3.0625 -0.5625 3.0625 -1 1 C-0.67 0.67 -0.34 0.34 0 0 Z " fill="#061D37" transform="translate(51,256)"/>
<path d="M0 0 C0.66 0.33 1.32 0.66 2 1 C-0.64 3.97 -3.28 6.94 -6 10 C-6.33 9.01 -6.66 8.02 -7 7 C-6.01 6.67 -5.02 6.34 -4 6 C-3.65657551 4.66923011 -3.32380126 3.33568021 -3 2 C-2.01 1.34 -1.02 0.68 0 0 Z " fill="#082543" transform="translate(100,214)"/>
<path d="M0 0 C0.66 0 1.32 0 2 0 C2.80967438 2.91482778 3.21845993 4.46113217 2.0625 7.3125 C1.5365625 8.1478125 1.5365625 8.1478125 1 9 C-0.61949011 6.42786866 -1.04408751 5.32330841 -0.625 2.25 C-0.41875 1.5075 -0.2125 0.765 0 0 Z " fill="#071226" transform="translate(275,108)"/>
<path d="M0 0 C0.99 0.33 1.98 0.66 3 1 C0.36 3.64 -2.28 6.28 -5 9 C-5.33 8.01 -5.66 7.02 -6 6 C-4 4 -2 2 0 0 Z " fill="#092740" transform="translate(139,170)"/>
<path d="M0 0 C1.41655793 -0.0272415 2.83327045 -0.04650467 4.25 -0.0625 C5.43335938 -0.07990234 5.43335938 -0.07990234 6.640625 -0.09765625 C8.90691002 -0.00385306 10.8288895 0.36758937 13 1 C12.67 1.99 12.34 2.98 12 4 C6.06 2.515 6.06 2.515 0 1 C0 0.67 0 0.34 0 0 Z " fill="#0A2D49" transform="translate(208,162)"/>
<path d="M0 0 C3 1 3 1 3.984375 2.7421875 C4.23703125 3.44601563 4.4896875 4.14984375 4.75 4.875 C5.01296875 5.57367188 5.2759375 6.27234375 5.546875 6.9921875 C6 9 6 9 5 12 C4.16180842 10.37750059 3.3295884 8.75191503 2.5 7.125 C2.0359375 6.22007812 1.571875 5.31515625 1.09375 4.3828125 C0 2 0 2 0 0 Z " fill="#06213F" transform="translate(122,127)"/>
<path d="M0 0 C4.4571874 0.26218749 6.51522698 0.57711289 9.9375 3.5625 C10.618125 4.366875 11.29875 5.17125 12 6 C7.76570244 4.68938409 3.92592596 3.05643741 0 1 C0 0.67 0 0.34 0 0 Z " fill="#032342" transform="translate(213,51)"/>
<path d="M0 0 C1.31223496 3.93670488 0.24296256 6.12488144 -1 10 C-3.35953094 7.64046906 -3.49141413 6.22104383 -4 3 C-2.68 2.67 -1.36 2.34 0 2 C0 1.34 0 0.68 0 0 Z " fill="#0E3A5E" transform="translate(59,109)"/>
<path d="M0 0 C0.33 0.66 0.66 1.32 1 2 C-0.4375 4.625 -0.4375 4.625 -2 7 C-2.99 6.67 -3.98 6.34 -5 6 C-3.63016497 2.83884224 -3.0109362 2.0072908 0 0 Z " fill="#07162D" transform="translate(77,81)"/>
<path d="M0 0 C0.99 0.33 1.98 0.66 3 1 C1.625 3.5 1.625 3.5 0 6 C-0.66 6 -1.32 6 -2 6 C-2.33 6.66 -2.66 7.32 -3 8 C-2.45276317 4.62537285 -1.9451 2.91765 0 0 Z " fill="#092A4D" transform="translate(97,182)"/>
<path d="M0 0 C0.33 0.66 0.66 1.32 1 2 C2.32 1.67 3.64 1.34 5 1 C4.42655063 3.86724686 4.1385485 4.8614515 2 7 C0.5393715 4.35261084 0 3.10551666 0 0 Z " fill="#081B37" transform="translate(271,104)"/>
<path d="M0 0 C0.6875 1.75 0.6875 1.75 1 4 C-0.3125 6.25 -0.3125 6.25 -2 8 C-2.66 8 -3.32 8 -4 8 C-2.87548273 5.0280615 -1.77706209 2.66559313 0 0 Z " fill="#103960" transform="translate(217,216)"/>
<path d="M0 0 C0.66 0.33 1.32 0.66 2 1 C1.01 1.33 0.02 1.66 -1 2 C-1 2.99 -1 3.98 -1 5 C-3.5 6.6875 -3.5 6.6875 -6 8 C-5.67 6.68 -5.34 5.36 -5 4 C-4.01 4 -3.02 4 -2 4 C-2 3.01 -2 2.02 -2 1 C-1.34 0.67 -0.68 0.34 0 0 Z " fill="#133C5F" transform="translate(134,174)"/>
<path d="M0 0 C2 3 2 3 2 7 C1.01 7 0.02 7 -1 7 C-1.33 5.68 -1.66 4.36 -2 3 C-1.34 3 -0.68 3 0 3 C0 2.01 0 1.02 0 0 Z " fill="#1D2631" transform="translate(281,125)"/>
<path d="M0 0 C0 0.99 0 1.98 0 3 C-0.66 2.67 -1.32 2.34 -2 2 C-1.34 1.34 -0.68 0.68 0 0 Z " fill="#1D1D2E" transform="translate(80,78)"/>
<path d="" fill="#000000" transform="translate(0,0)"/>
<path d="" fill="#000000" transform="translate(0,0)"/>
<path d="" fill="#000000" transform="translate(0,0)"/>
<path d="" fill="#000000" transform="translate(0,0)"/>
<path d="" fill="#000000" transform="translate(0,0)"/>
<path d="" fill="#000000" transform="translate(0,0)"/>
<path d="" fill="#000000" transform="translate(0,0)"/>
<path d="" fill="#000000" transform="translate(0,0)"/>
<path d="" fill="#000000" transform="translate(0,0)"/>
<path d="" fill="#000000" transform="translate(0,0)"/>
<path d="" fill="#000000" transform="translate(0,0)"/>
<path d="" fill="#000000" transform="translate(0,0)"/>
<path d="" fill="#000000" transform="translate(0,0)"/>
<path d="" fill="#000000" transform="translate(0,0)"/>
<path d="" fill="#000000" transform="translate(0,0)"/>
<path d="" fill="#000000" transform="translate(0,0)"/>
<path d="" fill="#000000" transform="translate(0,0)"/>
<path d="" fill="#000000" transform="translate(0,0)"/>
<path d="" fill="#000000" transform="translate(0,0)"/>
<path d="" fill="#000000" transform="translate(0,0)"/>
<path d="" fill="#000000" transform="translate(0,0)"/>
<path d="" fill="#000000" transform="translate(0,0)"/>
<path d="" fill="#000000" transform="translate(0,0)"/>
<path d="" fill="#000000" transform="translate(0,0)"/>
<path d="" fill="#000000" transform="translate(0,0)"/>
<path d="" fill="#000000" transform="translate(0,0)"/>
<path d="" fill="#000000" transform="translate(0,0)"/>
<path d="" fill="#000000" transform="translate(0,0)"/>
<path d="" fill="#000000" transform="translate(0,0)"/>
<path d="" fill="#000000" transform="translate(0,0)"/>
<path d="" fill="#000000" transform="translate(0,0)"/>
<path d="" fill="#000000" transform="translate(0,0)"/>
<path d="" fill="#000000" transform="translate(0,0)"/>
<path d="" fill="#000000" transform="translate(0,0)"/>
<path d="" fill="#000000" transform="translate(0,0)"/>
<path d="" fill="#000000" transform="translate(0,0)"/>
<path d="" fill="#000000" transform="translate(0,0)"/>
<path d="" fill="#000000" transform="translate(0,0)"/>
<path d="" fill="#000000" transform="translate(0,0)"/>
<path d="" fill="#000000" transform="translate(0,0)"/>
<path d="" fill="#000000" transform="translate(0,0)"/>
<path d="" fill="#000000" transform="translate(0,0)"/>
<path d="" fill="#000000" transform="translate(0,0)"/>
<path d="" fill="#000000" transform="translate(0,0)"/>
<path d="" fill="#000000" transform="translate(0,0)"/>
<path d="" fill="#000000" transform="translate(0,0)"/>
<path d="" fill="#000000" transform="translate(0,0)"/>
<path d="" fill="#000000" transform="translate(0,0)"/>
<path d="" fill="#000000" transform="translate(0,0)"/>
<path d="" fill="#000000" transform="translate(0,0)"/>
<path d="" fill="#000000" transform="translate(0,0)"/>
<path d="" fill="#000000" transform="translate(0,0)"/>
<path d="" fill="#000000" transform="translate(0,0)"/>
<path d="" fill="#000000" transform="translate(0,0)"/>
<path d="" fill="#000000" transform="translate(0,0)"/>
<path d="" fill="#000000" transform="translate(0,0)"/>
<path d="" fill="#000000" transform="translate(0,0)"/>
<path d="" fill="#000000" transform="translate(0,0)"/>
<path d="" fill="#000000" transform="translate(0,0)"/>
<path d="" fill="#000000" transform="translate(0,0)"/>
<path d="" fill="#000000" transform="translate(0,0)"/>
<path d="" fill="#000000" transform="translate(0,0)"/>
<path d="" fill="#000000" transform="translate(0,0)"/>
<path d="" fill="#000000" transform="translate(0,0)"/>
</svg>
